<?xml version="1.0" encoding="UTF-8"?>
<svg id="_레이어_2" data-name="레이어 2" xmlns="http://www.w3.org/2000/svg" viewBox="0 0 349.73 50.28">
  <defs>
    <style>
      .cls-1 {
        fill: #211c1d;
      }
    </style>
  </defs>
  <g id="Layer_1" data-name="Layer 1">
    <g>
      <polygon class="cls-1" points="32.32 .97 32.32 19.13 13.67 19.13 13.67 .97 0 .97 0 49.31 13.67 49.31 13.67 30.46 32.32 30.46 32.32 49.31 46 49.31 46 .97 32.32 .97"/>
      <polygon class="cls-1" points="69.2 38.74 69.2 29.9 90.68 29.9 90.68 19.68 69.2 19.68 69.2 11.53 93.58 11.53 93.58 .97 55.66 .97 55.66 49.31 94.48 49.31 94.48 38.74 69.2 38.74"/>
      <path class="cls-1" d="M142.96,9.29c-1.75-2.69-4.22-4.75-7.42-6.18-3.2-1.43-7.01-2.14-11.43-2.14h-22.1v48.34h13.67v-12.64h8.43c4.42,0,8.23-.73,11.43-2.18,3.2-1.45,5.67-3.51,7.42-6.18,1.75-2.67,2.63-5.82,2.63-9.46s-.88-6.87-2.63-9.56ZM129.66,24.03c-1.41,1.24-3.53,1.87-6.39,1.87h-7.6v-14.16h7.6c2.85,0,4.98.62,6.39,1.87,1.4,1.24,2.11,2.99,2.11,5.25s-.7,3.94-2.11,5.18Z"/>
      <polygon class="cls-1" points="148.35 .97 148.35 11.81 163.2 11.81 163.2 49.31 176.87 49.31 176.87 11.81 191.65 11.81 191.65 .97 148.35 .97"/>
      <path class="cls-1" d="M246.03,15.12c-1.36-3.04-3.24-5.7-5.63-7.98-2.4-2.28-5.21-4.04-8.46-5.28-3.25-1.24-6.83-1.86-10.74-1.86s-7.43.62-10.7,1.86-6.11,3-8.53,5.28c-2.42,2.28-4.29,4.94-5.63,7.98-1.34,3.04-2,6.38-2,10.01s.67,6.97,2,10.01c1.33,3.04,3.21,5.7,5.63,7.98,2.42,2.28,5.26,4.04,8.53,5.28s6.84,1.86,10.7,1.86,7.49-.62,10.74-1.86c3.25-1.24,6.07-2.99,8.46-5.25,2.39-2.25,4.27-4.91,5.63-7.98,1.36-3.06,2.04-6.41,2.04-10.05s-.68-6.97-2.04-10.01ZM233.26,30.8c-.67,1.7-1.59,3.17-2.76,4.39-1.17,1.22-2.55,2.15-4.14,2.8-1.59.65-3.3.97-5.15.97s-3.56-.32-5.15-.97c-1.59-.64-2.97-1.58-4.14-2.8-1.17-1.22-2.1-2.68-2.76-4.39-.67-1.7-1-3.59-1-5.66s.33-4.02,1-5.7c.67-1.68,1.59-3.13,2.76-4.35,1.17-1.22,2.55-2.15,4.14-2.8,1.59-.64,3.3-.97,5.15-.97s3.56.32,5.15.97c1.59.65,2.97,1.58,4.14,2.8,1.17,1.22,2.09,2.67,2.76,4.35.67,1.68,1,3.58,1,5.7s-.33,3.96-1,5.66Z"/>
      <polygon class="cls-1" points="287.85 .97 287.85 26.73 266.51 .97 255.25 .97 255.25 49.31 268.65 49.31 268.65 23.55 289.99 49.31 301.25 49.31 301.25 .97 287.85 .97"/>
      <polygon class="cls-1" points="324.45 38.74 324.45 29.9 345.93 29.9 345.93 19.68 324.45 19.68 324.45 11.53 348.83 11.53 348.83 .97 310.92 .97 310.92 49.31 349.73 49.31 349.73 38.74 324.45 38.74"/>
    </g>
  </g>
</svg>