<?xml version="1.0" encoding="UTF-8"?>
<svg id="_레이어_2" data-name="레이어 2" xmlns="http://www.w3.org/2000/svg" viewBox="0 0 321.07 291.38">
  <defs>
    <style>
      .cls-1 {
        fill: #fff;
      }
    </style>
  </defs>
  <g id="Layer_1" data-name="Layer 1">
    <g>
      <g>
        <path class="cls-1" d="M117.5,12.13c-16.12,9.88-27.62,24.41-33.87,40.81-1.2,3.16,2.31,6.04,5.2,4.27L170.68,7.04c2.88-1.77,1.91-6.21-1.45-6.57-17.45-1.87-35.62,1.78-51.74,11.66Z"/>
        <path class="cls-1" d="M216.46,21.92c-4.98-4.62-10.46-8.56-16.3-11.76-1.11-.61-2.46-.55-3.54.11l-116.7,71.52c-1.08.66-1.74,1.84-1.7,3.11.2,6.65,1.22,13.32,3.08,19.86.64,2.25,3.28,3.26,5.28,2.03l51.77-31.73c1.67-1.03,3.86-.5,4.89,1.17l48.38,78.94c.95,1.56,2.93,2.14,4.58,1.35,2.49-1.19,4.94-2.52,7.35-3.99,2.4-1.47,4.7-3.06,6.89-4.73,1.45-1.11,1.83-3.14.87-4.69l-48.38-78.94c-1.03-1.67-.5-3.86,1.17-4.89l51.77-31.73c2-1.22,2.3-4.03.58-5.63Z"/>
        <path class="cls-1" d="M174.54,158.49l-36.68-59.85c-1.03-1.67-3.21-2.2-4.89-1.17l-40.74,24.97c-.3.19-2.5,1.71-.95,4.42,17.87,27.82,49.84,41.37,80.77,37.01,2.51-.35,3.81-3.21,2.49-5.37Z"/>
        <path class="cls-1" d="M222,129.33l-36.64-59.87c-1.02-1.67-.5-3.86,1.18-4.89l40.75-24.94c.31-.18,2.66-1.45,4.37,1.16,16.66,28.56,14.2,63.2-3.74,88.77-1.46,2.08-4.59,1.94-5.92-.23Z"/>
      </g>
      <g>
        <path class="cls-1" d="M92.47,203.11h24.41v88.27h-24.41v-88.27Z"/>
        <path class="cls-1" d="M132.48,203.11h22.71l36.14,46.64v-46.64h23.91v88.27h-21.33l-37.52-48.39v48.39h-23.91v-88.27Z"/>
        <path class="cls-1" d="M260.34,203.11h23.41l37.31,88.27h-26.04l-6.39-15.65h-33.81l-6.26,15.65h-25.54l37.31-88.27ZM281.63,256.95l-9.77-24.92-9.89,24.92h19.66Z"/>
        <path class="cls-1" d="M26.29,223.58H0v-20.47h76.88v20.47h-26.29v67.8h-24.29v-67.8Z"/>
      </g>
    </g>
  </g>
</svg>